<?xml version="1.0" standalone="no"?>
<!DOCTYPE svg PUBLIC "-//W3C//DTD SVG 20010904//EN"
 "http://www.w3.org/TR/2001/REC-SVG-20010904/DTD/svg10.dtd">
<svg version="1.0" xmlns="http://www.w3.org/2000/svg"
 width="315.000000pt" height="315.000000pt" viewBox="0 0 315.000000 315.000000"
 preserveAspectRatio="xMidYMid meet">

<g transform="translate(0.000000,315.000000) scale(0.100000,-0.100000)"
fill="#000000" stroke="none">
<path d="M882 3073 c-1 -48 2 -83 8 -83 5 0 7 6 4 14 -3 8 0 17 6 21 7 4 8 11
1 19 -5 6 -11 34 -14 61 -2 35 -4 26 -5 -32z"/>
<path d="M1517 3130 c10 -11 23 -20 30 -20 6 0 15 -9 18 -20 3 -11 13 -20 21
-20 16 0 18 -9 4 -30 -9 -13 -13 -13 -38 1 -27 15 -52 15 -52 -1 0 -5 9 -12
20 -15 11 -3 27 -13 35 -22 25 -25 62 -9 75 33 11 31 16 35 38 31 14 -3 35 -1
46 3 18 6 21 3 23 -18 0 -15 6 -28 12 -30 6 -2 11 -10 11 -18 0 -8 5 -14 11
-14 6 0 9 9 6 20 -3 11 -2 20 1 20 20 -1 142 -91 142 -105 0 -3 16 -23 35 -43
19 -20 35 -40 35 -44 0 -5 8 -8 18 -7 10 0 12 3 5 6 -20 7 -15 23 6 23 23 0
35 -16 36 -45 0 -14 8 -21 25 -23 38 -6 49 -20 43 -56 -4 -27 -1 -36 17 -49
16 -11 18 -16 8 -21 -10 -5 -10 -7 0 -12 13 -6 17 -34 4 -34 -16 0 -72 57 -72
73 0 19 -5 23 -47 32 -30 6 -33 4 -33 -16 0 -22 -1 -23 -17 -6 -17 17 -17 19
1 33 19 14 19 14 -3 14 -12 0 -30 -7 -39 -16 -15 -15 -16 -15 -23 2 -5 14 -8
8 -8 -19 -1 -20 3 -36 7 -35 17 6 82 -75 82 -100 0 -19 3 -23 11 -15 16 16 2
83 -16 83 -8 0 -15 5 -15 10 0 6 16 10 35 10 21 0 35 -5 35 -12 0 -7 12 -22
26 -34 21 -19 24 -26 15 -43 -6 -11 -11 -31 -11 -44 0 -30 48 -107 67 -107 7
0 13 -5 13 -12 0 -9 3 -9 12 0 7 7 20 12 30 12 16 0 17 -3 7 -22 -16 -31 -15
-31 -37 -19 -14 7 -28 7 -50 -1 -25 -10 -33 -9 -47 5 -25 25 -30 21 -10 -9 16
-26 16 -27 0 -37 -15 -8 -9 -14 36 -38 29 -16 56 -34 60 -40 5 -8 9 -8 14 1 4
6 5 12 4 14 -43 29 -69 42 -89 47 -22 5 -23 7 -7 14 13 5 28 1 47 -13 20 -15
30 -18 33 -9 5 12 33 -52 29 -66 -1 -4 9 -13 23 -19 14 -6 25 -15 25 -20 0
-13 -24 -9 -48 8 -28 20 -33 16 -34 -27 0 -41 -7 -69 -17 -69 -9 0 -41 66 -41
86 0 11 -6 13 -20 9 -16 -5 -20 -2 -20 19 0 16 -6 26 -14 26 -12 0 -76 81 -76
96 0 3 -11 22 -25 42 -14 20 -25 33 -25 29 0 -5 -11 5 -25 21 -30 35 -30 39
-7 45 13 4 12 5 -5 6 -21 1 -22 5 -17 44 5 33 2 47 -14 67 -17 20 -24 23 -39
14 -30 -19 -28 -44 4 -45 23 -1 24 -2 6 -6 -15 -3 -23 -12 -23 -24 0 -10 -2
-19 -5 -19 -8 0 -100 45 -105 52 -10 12 -143 18 -157 6 -10 -8 -20 -8 -38 2
-21 11 -27 11 -38 -1 -6 -8 -30 -21 -52 -28 -21 -8 -45 -20 -53 -27 -7 -8 -20
-14 -28 -14 -8 0 -14 -4 -14 -10 0 -5 -7 -10 -15 -10 -8 0 -15 -4 -15 -9 0
-36 -176 0 -212 43 -15 18 -19 19 -28 6 -6 -8 -9 -41 -7 -74 4 -66 -7 -77 -47
-51 -25 16 -26 22 -26 103 0 47 -2 83 -4 81 -2 -2 -6 -48 -8 -102 l-5 -97 26
-7 c14 -3 29 -11 33 -17 4 -6 19 -12 34 -13 29 -2 69 -38 59 -53 -10 -16 -33
-12 -44 8 -6 9 -11 12 -11 6 0 -6 7 -17 15 -24 8 -7 15 -19 15 -26 0 -21 -23
-17 -38 6 -7 11 -18 17 -27 14 -21 -8 -19 -36 3 -32 14 2 17 -4 17 -36 0 -41
-20 -61 -28 -29 -4 16 -5 16 -6 -1 0 -11 -8 -27 -16 -36 -12 -13 -13 -22 -3
-47 10 -26 9 -35 -7 -59 -10 -15 -24 -50 -31 -78 -17 -63 -18 -218 -2 -234 8
-8 0 -10 -35 -7 -27 2 -50 -1 -56 -8 -10 -13 11 -129 35 -185 8 -18 14 -39 14
-48 0 -10 7 -13 25 -8 15 4 25 2 25 -5 0 -6 -9 -11 -20 -11 -21 0 -28 -24 -10
-35 6 -3 10 -39 10 -80 0 -43 5 -77 11 -81 15 -9 29 14 29 49 0 55 17 17 23
-51 6 -74 33 -178 48 -187 5 -4 9 -30 9 -58 0 -29 5 -98 12 -154 l12 -103 -39
-32 c-21 -18 -49 -43 -63 -55 -13 -12 -28 -23 -34 -25 -15 -5 41 -155 71 -190
22 -27 29 -30 65 -25 23 3 59 1 81 -4 22 -6 72 -15 110 -20 39 -5 108 -24 155
-43 47 -19 100 -39 119 -45 36 -12 31 -14 137 46 31 18 64 35 74 38 10 3 75
40 146 83 146 88 194 138 194 200 0 26 -6 41 -20 50 -16 10 -20 23 -20 66 0
58 7 72 27 51 7 -8 8 -15 3 -17 -15 -5 -17 -70 -2 -75 9 -4 11 2 6 21 -5 22
-3 26 15 26 12 0 21 -6 21 -15 0 -8 6 -15 14 -15 18 0 48 64 40 85 -4 10 -1
21 6 25 8 5 10 14 5 26 -8 17 -9 17 -12 -4 -5 -23 -11 -26 -37 -16 -18 7 -23
64 -6 64 16 0 11 27 -6 34 -27 10 -44 7 -44 -9 0 -29 -17 -15 -18 15 -1 34 2
34 75 21 57 -11 107 -2 109 20 0 8 2 18 2 23 2 10 32 -13 32 -25 0 -5 -7 -9
-15 -9 -8 0 -15 -6 -15 -13 0 -13 89 -41 91 -28 0 3 1 26 2 51 2 39 -1 45 -18
45 -40 1 -75 27 -75 55 0 14 -5 31 -12 38 -8 8 -9 18 0 36 8 18 7 28 -5 45 -8
13 -12 29 -8 39 5 12 9 13 12 4 4 -10 8 -10 19 -1 19 16 25 9 31 -41 5 -36 3
-42 -15 -47 -20 -5 -20 -6 6 -44 26 -37 61 -52 63 -26 0 6 1 64 1 127 0 127
10 157 48 145 l22 -7 -21 -15 c-12 -8 -21 -22 -20 -31 0 -11 2 -12 6 -4 8 21
23 3 23 -29 0 -28 1 -29 16 -14 13 12 14 19 5 28 -14 14 -14 27 -1 27 6 0 21
12 33 26 15 17 28 23 40 19 19 -8 23 -25 6 -25 -6 0 -9 -6 -6 -14 4 -10 0 -12
-13 -9 -14 4 -19 0 -18 -13 0 -11 -4 -38 -10 -62 -5 -23 -8 -51 -5 -62 4 -15
0 -20 -15 -20 -13 0 -22 8 -25 23 l-4 22 -2 -23 c0 -13 6 -25 17 -29 40 -15
68 -60 71 -112 2 -40 -1 -51 -14 -51 -10 0 -15 10 -15 33 0 19 -3 27 -8 20 -6
-10 -12 -10 -28 2 -24 18 -57 20 -51 3 2 -7 11 -12 21 -10 22 4 20 -10 -5 -37
-11 -12 -18 -29 -15 -37 9 -23 -12 -67 -29 -60 -8 3 -15 1 -15 -4 0 -6 8 -10
18 -11 10 0 12 -3 5 -6 -7 -2 -13 -11 -13 -18 0 -8 -7 -18 -16 -23 -11 -6 -14
-20 -12 -48 l3 -38 48 3 c37 2 47 -1 47 -13 0 -12 10 -16 42 -16 24 0 49 -7
59 -16 17 -16 19 -15 29 12 21 59 22 60 27 47 3 -7 11 -13 19 -13 9 0 14 -12
14 -36 0 -27 5 -37 20 -41 21 -6 21 -4 24 -130 2 -61 9 -72 33 -51 18 15 41
16 111 2 21 -4 32 -2 32 5 0 7 -5 9 -11 5 -8 -5 -8 -1 0 14 6 11 11 57 11 101
0 49 4 83 12 87 8 5 7 10 -3 18 -11 8 -15 48 -16 175 -2 119 -6 167 -15 173
-10 6 -10 10 2 18 13 8 13 13 -3 39 -22 37 -23 101 -2 101 20 0 19 17 -2 30
-17 10 -17 10 0 20 19 12 23 50 6 67 -8 8 -8 17 1 33 14 26 6 323 -9 328 -6 2
-6 16 0 35 5 18 9 55 9 83 0 58 7 71 26 46 16 -21 19 0 4 28 -7 13 -6 19 6 24
8 3 12 10 9 16 -4 6 -14 1 -24 -12 l-19 -22 -6 39 c-7 48 -10 192 -6 378 1
109 5 137 15 133 17 -6 85 15 85 27 0 5 -9 6 -22 1 -71 -24 -148 7 -228 91
-43 44 -72 63 -64 40 9 -23 -15 -18 -50 12 l-31 26 30 -7 c29 -7 29 -7 12 12
-9 10 -43 36 -75 58 -84 57 -163 116 -188 142 -13 12 -30 22 -38 22 -8 0 -21
6 -28 13 -48 45 -89 67 -113 61 -21 -5 -27 -2 -31 12 -3 12 -28 29 -64 44 -33
14 -61 32 -64 40 -2 8 -4 2 -5 -13 0 -16 3 -26 9 -22 14 9 49 -17 43 -32 -7
-17 24 -17 30 0 4 9 8 8 16 -3 16 -22 13 -50 -5 -50 -10 0 -14 5 -10 16 3 8 2
13 -3 9 -11 -6 -71 26 -71 38 0 5 -4 5 -10 2 -5 -3 -10 -2 -10 4 0 5 -20 23
-46 40 -43 30 -49 31 -155 31 -78 0 -109 -3 -109 -12 0 -9 -3 -9 -12 0 -7 7
-29 12 -50 12 -37 0 -37 -1 -21 -20z m108 -20 c3 -5 -1 -10 -9 -10 -9 0 -16 5
-16 10 0 6 4 10 9 10 6 0 13 -4 16 -10z m505 -105 c14 -16 10 -18 -14 -9 -9 3
-16 10 -16 15 0 14 16 11 30 -6z m45 -45 c3 -5 1 -10 -4 -10 -6 0 -11 5 -11
10 0 6 2 10 4 10 3 0 8 -4 11 -10z m70 -41 c16 -16 -19 -9 -40 7 -19 16 -19
16 5 9 14 -4 29 -11 35 -16z m220 -156 c10 -27 -29 -11 -66 26 l-39 39 50 -26
c27 -15 52 -33 55 -39z m145 -115 c0 -17 -23 -3 -26 16 -2 14 0 15 12 5 8 -6
14 -16 14 -21z m-190 -68 c22 -7 20 -8 -13 -7 -21 0 -40 4 -43 9 -6 10 22 9
56 -2z m-261 -97 c0 -34 -1 -36 -11 -16 -6 12 -8 29 -5 37 11 27 17 18 16 -21z
m-1099 -33 c0 -5 -4 -10 -10 -10 -5 0 -10 5 -10 10 0 6 5 10 10 10 6 0 10 -4
10 -10z m1275 -10 c3 -5 1 -10 -4 -10 -6 0 -11 5 -11 10 0 6 2 10 4 10 3 0 8
-4 11 -10z m-1155 -15 c0 -8 -4 -15 -8 -15 -5 0 -9 7 -9 15 0 8 4 15 9 15 4 0
8 -7 8 -15z m1054 -80 c-6 -16 -34 -21 -34 -7 0 13 11 22 26 22 8 0 11 -6 8
-15z m-616 -100 c23 -4 36 -14 42 -31 6 -14 14 -22 20 -19 5 3 10 1 10 -4 0
-6 9 -11 19 -11 20 0 51 -25 51 -40 0 -5 -8 -8 -17 -8 -10 0 -31 -5 -48 -11
-23 -10 -26 -14 -15 -22 13 -8 13 -10 0 -18 -12 -9 -12 -11 3 -15 54 -18 53
-17 28 -27 -13 -5 -38 -10 -57 -12 -49 -3 -42 -16 9 -15 24 0 58 -3 75 -7 26
-5 32 -11 27 -25 -4 -12 1 -22 12 -29 16 -9 15 -10 -7 -10 -14 1 -39 -3 -57
-9 -23 -7 -36 -7 -50 2 -14 10 -23 10 -43 -1 -24 -12 -24 -13 -3 -13 12 0 24
-4 28 -9 6 -10 -73 -13 -89 -3 -5 3 -1 9 10 13 13 5 1 8 -36 10 -30 1 -66 3
-80 5 -14 1 -67 6 -117 10 -51 4 -93 11 -93 15 0 4 -9 10 -20 14 -14 4 -19 14
-17 35 1 17 8 32 14 34 7 3 10 13 6 22 -5 14 -1 16 25 12 22 -3 32 0 32 9 0 7
-9 13 -20 13 -27 0 -60 39 -60 71 0 41 54 70 138 76 36 2 67 5 68 6 5 5 180
-2 212 -8z m662 -55 c18 -12 2 -12 -25 0 -13 6 -15 9 -5 9 8 0 22 -4 30 -9z
m-64 -96 c-8 -20 -31 -13 -30 9 1 10 2 32 3 50 l2 32 16 -38 c8 -20 12 -44 9
-53z m124 55 c0 -5 -4 -9 -10 -9 -5 0 -10 7 -10 16 0 8 5 12 10 9 6 -3 10 -10
10 -16z m-50 -67 c0 -21 -20 -52 -34 -52 -3 0 -6 9 -6 20 0 11 4 20 10 20 6 0
5 9 -2 24 -6 14 -7 33 -4 43 7 16 9 16 21 -7 8 -14 14 -35 15 -48z m-134 -14
c4 -13 15 -34 25 -47 11 -13 19 -31 19 -40 0 -9 10 -27 23 -41 12 -14 30 -35
39 -48 15 -22 15 -22 21 20 5 41 -1 66 -10 41 -7 -20 -19 -15 -31 12 -19 42
-14 47 28 25 21 -11 48 -20 58 -20 17 0 18 -7 16 -61 -2 -33 -8 -67 -13 -76
-8 -14 -10 -14 -22 5 -8 12 -17 22 -21 22 -15 0 -8 -32 12 -57 11 -14 20 -31
20 -38 0 -7 9 -23 19 -37 13 -15 18 -33 14 -46 -6 -25 -5 -24 -27 -16 -9 3
-16 16 -16 28 0 11 -7 34 -15 50 -8 15 -15 35 -15 42 0 8 -11 19 -25 24 -14 5
-25 16 -25 23 0 16 -40 40 -59 35 -18 -4 -40 87 -41 165 0 58 13 76 26 35z
m305 -109 c26 -26 19 -35 -13 -17 -12 7 -25 14 -27 15 -4 2 9 23 15 23 2 0 13
-9 25 -21z m-67 -4 c3 -8 1 -15 -3 -15 -5 0 -11 7 -15 15 -3 8 -1 15 3 15 5 0
11 -7 15 -15z m-1080 -41 c9 -3 16 -18 16 -33 0 -36 -45 -57 -84 -40 -35 16
-33 29 5 29 17 0 28 4 24 10 -3 6 -17 10 -30 10 -25 0 -39 12 -28 24 8 8 76 8
97 0z m104 -21 c20 -5 32 -23 14 -23 -4 0 -8 -16 -8 -35 0 -19 4 -35 8 -35 4
0 8 7 8 15 0 29 36 11 42 -20 3 -17 -2 -20 -30 -17 -18 2 -40 -2 -48 -9 -11
-9 -21 -9 -40 0 -25 11 -25 31 1 31 9 0 13 10 12 28 -2 16 -8 27 -17 27 -17 0
-21 36 -5 47 5 4 17 5 25 2 8 -4 25 -9 38 -11z m-228 -48 c0 -25 -14 -31 -65
-25 -27 3 -28 5 -15 29 8 15 20 21 45 21 31 0 35 -3 35 -25z m1428 6 c-4 -22
-22 -23 -34 -3 -10 15 -8 18 13 18 15 0 23 -5 21 -15z m-413 -42 c9 -17 14
-36 12 -42 -4 -12 -37 44 -37 63 0 18 9 11 25 -21z m-469 -1 c4 -4 -6 -12 -21
-18 -29 -11 -53 -1 -42 17 7 11 52 11 63 1z m-221 -45 c-9 -20 -18 -39 -22
-42 -10 -10 8 53 19 66 18 22 19 14 3 -24z m-615 -53 c0 -5 -7 -10 -15 -10 -8
0 -15 5 -15 10 0 6 7 10 15 10 8 0 15 -4 15 -10z m43 -11 c-4 -15 -9 -17 -17
-9 -8 8 -7 13 4 20 8 5 16 10 17 10 0 0 -1 -9 -4 -21z m1327 11 c0 -5 -2 -10
-4 -10 -3 0 -8 5 -11 10 -3 6 -1 10 4 10 6 0 11 -4 11 -10z m-694 -54 c-4 -16
0 -30 10 -40 14 -15 13 -17 -11 -26 -14 -5 -34 -10 -43 -10 -15 1 -15 2 2 15
10 7 15 18 12 23 -3 6 -2 22 4 36 12 33 34 35 26 2z m904 -34 c0 -15 5 -33 11
-39 8 -8 8 -19 -2 -42 -14 -32 -20 -36 -32 -24 -4 3 0 14 9 24 15 17 15 21 0
59 -20 49 -20 50 -1 50 10 0 15 -10 15 -28z m-140 -1 c0 -3 3 -16 6 -28 5 -17
2 -23 -10 -23 -9 0 -16 6 -16 13 0 6 -3 22 -6 35 -5 18 -3 21 10 16 9 -3 16
-9 16 -13z m-50 -73 c0 -14 -4 -14 -25 -5 -24 12 -34 45 -18 61 9 9 42 -34 43
-56z m356 8 c16 -17 19 -56 4 -56 -5 0 -10 -7 -10 -16 0 -12 6 -15 23 -11 20
5 20 5 5 -7 -12 -9 -14 -16 -7 -23 8 -8 5 -17 -9 -31 -16 -16 -19 -29 -15 -61
5 -40 5 -41 -24 -41 -49 0 -71 40 -36 65 14 11 15 15 4 28 -7 9 -13 44 -14 79
-2 58 0 63 21 66 12 2 22 8 22 13 0 14 20 11 36 -5z m-1468 -23 c25 -6 29 -34
7 -53 -8 -7 -15 -16 -15 -21 0 -5 7 -9 15 -9 8 0 15 5 15 10 0 6 9 10 20 10
11 0 20 4 20 9 0 20 69 52 105 49 l35 -3 -30 -32 c-27 -29 -56 -83 -45 -83 3
0 15 10 28 23 l22 22 3 -30 c2 -16 11 -38 20 -48 13 -15 14 -21 3 -39 -7 -11
-9 -23 -5 -26 4 -4 9 -2 11 4 9 26 31 47 42 40 17 -11 -18 -66 -44 -68 -11 -1
-28 -2 -38 -2 -24 -2 -41 -31 -44 -76 -1 -23 -10 -42 -27 -55 -30 -25 -33 -74
-5 -72 10 1 21 7 23 14 6 15 25 17 45 4 12 -7 12 -13 3 -24 -9 -11 -8 -18 8
-32 11 -10 20 -13 20 -8 0 6 9 13 21 16 l21 6 -21 22 c-12 13 -17 27 -12 32
11 11 83 -2 75 -14 -3 -5 -4 -9 -2 -9 111 -10 191 -20 196 -25 3 -3 -2 -19
-11 -35 -16 -27 -16 -29 0 -33 10 -3 -9 -5 -43 -6 -70 -1 -173 16 -192 32 -11
8 -16 7 -24 -7 -8 -15 -12 -16 -19 -5 -6 10 -9 11 -9 2 0 -26 -2 -28 -23 -40
-17 -10 -18 -12 -5 -13 9 0 24 7 32 16 9 8 16 11 16 5 0 -6 -9 -19 -19 -28
-23 -19 -19 -33 10 -33 10 0 18 -6 17 -12 -2 -9 16 -14 62 -15 72 -3 173 -17
189 -28 16 -9 13 -35 -3 -35 -7 0 -25 -9 -39 -20 -28 -22 -58 -25 -88 -9 -16
8 -25 7 -40 -7 -11 -10 -19 -12 -19 -6 0 7 -16 12 -40 12 -25 0 -40 5 -40 13
0 7 -9 18 -20 25 -12 7 -20 8 -20 2 0 -5 -5 -10 -11 -10 -8 0 -8 4 0 14 13 15
3 46 -24 72 -6 7 -11 28 -10 48 0 24 -4 36 -13 36 -10 0 -12 8 -7 29 5 24 2
30 -14 36 -11 3 -18 12 -15 20 3 7 0 16 -6 20 -8 5 -7 11 2 22 10 13 8 18 -11
34 -13 11 -19 19 -13 19 13 0 22 63 10 75 -6 7 -14 4 -22 -7 -13 -17 -32 -26
-22 -10 2 4 -1 32 -8 62 -7 31 -10 64 -5 75 15 38 11 50 -11 30 -11 -10 -20
-24 -20 -32 0 -8 -5 -11 -10 -8 -6 4 -8 11 -5 16 4 5 -3 9 -14 9 -35 0 -64 84
-42 119 13 21 63 41 86 35 11 -3 30 -8 43 -11z m454 -11 l22 -22 -20 -27 c-25
-34 -87 -53 -112 -35 -47 34 -62 36 -98 17 -26 -14 -37 -16 -46 -7 -16 16 16
60 50 67 15 4 38 12 51 20 39 21 127 13 153 -13z m712 22 c9 -3 14 -10 11 -15
-7 -10 -35 0 -35 12 0 11 3 11 24 3z m-506 -54 c3 -8 12 -20 19 -25 14 -10 35
-75 34 -105 0 -30 -9 -81 -14 -86 -6 -6 -55 81 -63 113 -5 18 -2 23 12 23 11
0 15 4 9 8 -5 4 -19 24 -30 46 -11 21 -25 41 -32 43 -7 3 -13 9 -13 13 0 14
72 -13 78 -30z m408 3 c3 -10 9 -25 13 -33 10 -20 -1 -55 -17 -55 -18 0 -32
25 -32 61 0 44 25 63 36 27z m-516 -8 c8 -9 8 -15 2 -15 -18 0 -42 12 -42 21
0 14 26 10 40 -6z m605 -4 c3 -5 1 -12 -5 -16 -5 -3 -10 1 -10 9 0 18 6 21 15
7z m47 -13 c-9 -9 -15 -9 -24 0 -9 9 -7 12 12 12 19 0 21 -3 12 -12z m-75 -48
c10 -28 10 -29 -8 -20 -10 6 -19 20 -19 30 0 29 14 24 27 -10z m-1350 -42 c-3
-7 -5 -2 -5 12 0 14 2 19 5 13 2 -7 2 -19 0 -25z m520 16 c-3 -3 -12 -4 -19
-1 -8 3 -5 6 6 6 11 1 17 -2 13 -5z m236 -1 c-7 -2 -19 -2 -25 0 -7 3 -2 5 12
5 14 0 19 -2 13 -5z m524 -35 c-3 -7 -5 -2 -5 12 0 14 2 19 5 13 2 -7 2 -19 0
-25z m-78 -25 c-1 -38 -1 -38 -9 -9 -8 27 -6 46 6 46 2 0 4 -17 3 -37z m-669
-14 c0 -16 -4 -29 -10 -29 -12 0 -24 45 -15 60 11 18 25 1 25 -31z m60 15 c0
-7 -7 -14 -15 -18 -8 -3 -15 -4 -15 -2 0 3 -2 11 -5 18 -4 9 2 14 15 14 11 0
20 -6 20 -12z m14 -49 c3 -8 1 -15 -4 -15 -6 0 -10 7 -10 15 0 8 2 15 4 15 2
0 6 -7 10 -15z m1076 -30 c0 -15 6 -25 14 -25 7 0 16 -10 19 -22 2 -13 7 -30
11 -38 4 -9 0 -24 -7 -34 -13 -17 -14 -17 -31 -1 -9 10 -15 24 -12 32 3 8 2
22 -3 31 -4 9 -11 32 -14 50 -5 24 -3 32 8 32 9 0 15 -10 15 -25z m-1075 -37
c6 1 24 4 40 7 26 6 24 4 -12 -15 -39 -20 -44 -21 -58 -6 -21 20 -42 20 -101
0 -25 -8 -47 -14 -49 -12 -10 10 29 41 54 42 16 1 33 4 37 8 3 4 23 0 43 -9
20 -8 41 -15 46 -15z m605 -62 c-17 -22 -32 -9 -18 14 8 12 16 16 22 10 6 -6
4 -15 -4 -24z m430 8 c0 -8 -4 -14 -10 -14 -5 0 -10 9 -10 21 0 11 5 17 10 14
6 -3 10 -13 10 -21z m-285 -114 c3 -5 -1 -10 -9 -10 -9 0 -16 5 -16 10 0 6 4
10 9 10 6 0 13 -4 16 -10z m105 -12 c0 -13 -23 -5 -28 10 -2 7 2 10 12 6 9 -3
16 -11 16 -16z m-20 -48 c0 -5 -2 -10 -4 -10 -3 0 -8 5 -11 10 -3 6 -1 10 4
10 6 0 11 -4 11 -10z m-343 -67 c-3 -10 -5 -2 -5 17 0 19 2 27 5 18 2 -10 2
-26 0 -35z m313 -3 c0 -5 -4 -10 -10 -10 -5 0 -10 5 -10 10 0 6 5 10 10 10 6
0 10 -4 10 -10z m80 -56 c0 -8 5 -14 10 -14 6 0 10 -4 10 -10 0 -5 -16 -10
-35 -10 -38 0 -44 13 -19 41 18 20 34 17 34 -7z m-1155 -174 c3 -5 1 -10 -4
-10 -6 0 -11 5 -11 10 0 6 2 10 4 10 3 0 8 -4 11 -10z m-309 -79 c14 -6 33
-11 42 -12 11 -1 8 -4 -8 -9 l-25 -8 24 -1 c31 -1 18 -16 -15 -16 -17 -1 -28
8 -39 31 -8 18 -14 38 -14 46 1 8 3 7 6 -3 2 -9 15 -21 29 -28z m341 7 c34
-15 43 -22 30 -25 -10 -3 -23 0 -30 5 -7 5 -27 13 -44 17 -18 3 -33 11 -33 16
0 15 25 11 77 -13z m178 -18 c-3 -5 -12 -7 -20 -3 -21 7 -19 13 6 13 11 0 18
-4 14 -10z m-225 -19 c3 -5 21 -12 40 -15 19 -4 44 -11 55 -16 11 -4 35 -14
53 -20 18 -7 31 -14 29 -16 -6 -6 -116 26 -164 48 -27 12 -57 26 -68 30 -13 5
-8 6 15 3 18 -3 36 -9 40 -14z m240 -26 c0 -9 -6 -12 -15 -9 -8 4 -15 10 -15
15 0 5 7 9 15 9 8 0 15 -7 15 -15z m-241 -23 c26 -11 31 -17 19 -20 -22 -4
-23 -35 -3 -52 8 -7 15 -16 15 -21 0 -5 -7 -9 -15 -9 -8 0 -15 9 -15 20 0 14
-11 22 -40 31 -39 12 -53 33 -27 42 9 3 8 8 -3 22 -14 17 -13 17 9 10 13 -4
40 -14 60 -23z m-266 -12 c3 -11 2 -18 -3 -15 -4 3 -10 14 -13 25 -3 11 -2 18
3 15 4 -3 10 -14 13 -25z m202 -60 c13 -6 15 -9 5 -9 -8 0 -22 4 -30 9 -18 12
-2 12 25 0z m332 -16 c-3 -3 -12 -4 -19 -1 -8 3 -5 6 6 6 11 1 17 -2 13 -5z
m98 -34 c3 -5 -1 -10 -9 -10 -9 0 -16 5 -16 10 0 6 4 10 9 10 6 0 13 -4 16
-10z m-31 -19 c23 -3 -30 -41 -58 -41 -32 0 -68 34 -44 42 10 4 77 3 102 -1z"/>
<path d="M1305 2089 c11 -7 22 -16 25 -20 3 -4 23 -6 44 -6 46 2 63 27 19 27
-15 0 -46 3 -68 6 -35 5 -37 4 -20 -7z"/>
<path d="M2196 1921 c-9 -14 2 -51 15 -51 5 0 12 7 16 16 7 19 -21 51 -31 35z"/>
<path d="M2230 3146 c0 -3 53 -47 118 -99 66 -53 137 -111 158 -131 21 -20 42
-36 46 -36 3 0 46 -34 95 -76 130 -112 124 -109 178 -88 25 9 51 25 58 34 7 9
44 32 82 51 39 18 75 38 81 44 6 5 32 19 57 30 l47 20 0 128 0 127 -460 0
c-253 0 -460 -2 -460 -4z"/>
<path d="M1431 3084 c0 -11 3 -14 6 -6 3 7 2 16 -1 19 -3 4 -6 -2 -5 -13z"/>
<path d="M378 3073 c6 -2 18 -2 25 0 6 3 1 5 -13 5 -14 0 -19 -2 -12 -5z"/>
<path d="M1460 3065 c0 -8 4 -15 9 -15 5 0 11 7 15 15 3 9 0 15 -9 15 -8 0
-15 -7 -15 -15z"/>
<path d="M638 3003 c7 -3 16 -2 19 1 4 3 -2 6 -13 5 -11 0 -14 -3 -6 -6z"/>
<path d="M1105 2980 c-3 -5 -1 -10 4 -10 6 0 11 -6 11 -14 0 -15 36 -46 53
-46 12 0 -26 60 -45 71 -10 6 -19 5 -23 -1z"/>
<path d="M1600 2980 c0 -5 6 -10 14 -10 8 0 18 5 21 10 3 6 -3 10 -14 10 -12
0 -21 -4 -21 -10z"/>
<path d="M2350 2965 c0 -8 5 -15 10 -15 6 0 10 7 10 15 0 8 -4 15 -10 15 -5 0
-10 -7 -10 -15z"/>
<path d="M763 2933 c-15 -32 -17 -62 -4 -47 9 9 26 74 19 74 -2 0 -9 -12 -15
-27z"/>
<path d="M880 2940 c0 -5 5 -10 10 -10 6 0 10 5 10 10 0 6 -4 10 -10 10 -5 0
-10 -4 -10 -10z"/>
<path d="M60 2926 c0 -2 7 -7 16 -10 8 -3 12 -2 9 4 -6 10 -25 14 -25 6z"/>
<path d="M1110 2920 c-13 -8 -12 -10 3 -10 9 0 17 5 17 10 0 12 -1 12 -20 0z"/>
<path d="M1031 2903 c-12 -14 -11 -18 10 -34 13 -10 27 -19 32 -19 13 0 7 21
-8 26 -10 4 -13 13 -10 25 8 23 -5 24 -24 2z"/>
<path d="M180 2865 c47 -24 90 -44 95 -44 6 0 -28 20 -75 44 -47 24 -89 44
-95 44 -5 0 28 -20 75 -44z"/>
<path d="M876 2888 c-3 -13 -6 -46 -6 -73 0 -28 -6 -57 -12 -64 -11 -10 -9
-12 6 -9 16 3 19 13 20 86 0 45 0 82 0 82 -1 0 -4 -10 -8 -22z"/>
<path d="M948 2903 c-10 -2 -18 -8 -18 -13 0 -18 16 -18 40 1 25 18 17 22 -22
12z"/>
<path d="M70 2800 c0 -27 4 -50 8 -50 4 0 7 20 7 44 -2 36 1 43 14 39 14 -4
14 -3 1 6 -26 18 -30 13 -30 -39z"/>
<path d="M986 2794 c-12 -32 -6 -121 9 -134 8 -7 15 -24 15 -37 0 -16 7 -27
20 -30 11 -3 20 -10 21 -17 0 -6 4 -1 9 12 12 28 32 29 28 0 -2 -12 3 -23 11
-26 10 -3 12 0 8 11 -8 20 9 32 20 15 10 -15 48 -38 64 -38 7 0 9 9 6 21 -3
12 -1 19 6 16 6 -2 14 -14 18 -28 6 -21 7 -20 8 9 1 46 -14 71 -38 65 -11 -3
-21 -14 -23 -25 -2 -17 -5 -15 -14 10 -10 25 -9 30 2 25 9 -3 14 2 14 17 0 17
4 20 20 15 18 -6 20 -2 20 30 0 28 -4 36 -14 32 -8 -3 -17 1 -20 9 -3 8 -16
14 -29 14 -22 0 -24 -4 -23 -37 1 -25 -3 -38 -12 -38 -8 0 -19 -7 -25 -15 -19
-24 -50 -18 -53 10 -2 14 -6 42 -9 63 -4 25 -2 36 5 32 5 -3 10 -21 10 -39 0
-20 8 -40 20 -51 27 -25 24 1 -12 98 -12 30 -52 38 -62 11z"/>
<path d="M175 2771 c-3 -10 -1 -29 4 -42 9 -23 10 -22 10 9 1 27 5 32 25 32
25 0 36 -16 36 -56 0 -16 -6 -24 -17 -25 -12 0 -13 -2 -5 -6 17 -7 42 15 42
37 0 24 -45 70 -69 70 -11 0 -22 -8 -26 -19z"/>
<path d="M385 2770 c3 -5 8 -10 11 -10 2 0 4 5 4 10 0 6 -5 10 -11 10 -5 0 -7
-4 -4 -10z"/>
<path d="M910 2774 c0 -6 -11 -24 -24 -39 -14 -16 -22 -33 -19 -38 3 -5 9 -3
13 3 4 7 15 10 23 7 20 -7 35 49 18 66 -7 7 -11 7 -11 1z"/>
<path d="M441 2746 c2 -2 15 -9 29 -15 24 -11 24 -11 6 3 -16 13 -49 24 -35
12z"/>
<path d="M307 2713 c-2 -14 -1 -37 3 -52 l8 -26 3 25 c1 14 2 32 1 40 0 8 4
18 10 21 6 4 4 9 -5 12 -10 4 -16 -2 -20 -20z"/>
<path d="M527 2701 c23 -22 39 -28 28 -11 -3 5 -16 15 -28 21 l-22 11 22 -21z"/>
<path d="M366 2695 c4 -9 0 -15 -9 -15 -14 0 -14 -3 0 -31 8 -16 17 -28 20
-25 2 2 0 14 -7 25 -7 14 -7 21 0 21 5 0 10 9 10 20 0 11 -4 20 -10 20 -5 0
-7 -7 -4 -15z"/>
<path d="M1660 2700 c0 -5 5 -10 11 -10 5 0 7 5 4 10 -3 6 -8 10 -11 10 -2 0
-4 -4 -4 -10z"/>
<path d="M1275 2680 c-16 -18 -17 -25 -6 -60 11 -38 33 -52 46 -30 3 6 1 10
-4 10 -6 0 -11 9 -11 20 0 23 18 27 26 5 7 -18 34 -20 34 -2 0 31 -14 55 -36
66 -31 14 -28 15 -49 -9z"/>
<path d="M3125 2692 c-11 -2 -24 -9 -30 -14 -7 -7 -1 -8 20 -3 44 10 53 26 10
17z"/>
<path d="M52 2670 c0 -14 2 -19 5 -12 2 6 2 18 0 25 -3 6 -5 1 -5 -13z"/>
<path d="M543 2615 c0 -33 2 -45 4 -27 2 18 2 45 0 60 -2 15 -4 0 -4 -33z"/>
<path d="M2945 2600 c-3 -5 1 -10 10 -10 9 0 13 5 10 10 -3 6 -8 10 -10 10 -2
0 -7 -4 -10 -10z"/>
<path d="M1921 2584 c0 -11 3 -14 6 -6 3 7 2 16 -1 19 -3 4 -6 -2 -5 -13z"/>
<path d="M43 2553 c-20 -7 -15 -20 10 -27 48 -13 52 -22 25 -55 -45 -52 -45
-104 -3 -205 7 -16 5 -18 -16 -14 -13 3 -33 9 -44 13 -14 5 -16 4 -7 -2 7 -6
12 -16 10 -23 -2 -8 29 -24 87 -44 50 -17 95 -34 100 -37 6 -4 28 -10 50 -13
46 -8 73 -22 62 -32 -4 -4 -38 2 -75 13 -110 35 -115 36 -108 25 3 -5 18 -13
33 -17 15 -3 31 -12 35 -18 10 -16 206 -17 212 -1 2 6 -6 16 -20 22 l-24 11
25 37 c29 42 32 97 10 159 -19 53 -19 58 4 45 26 -13 31 -13 31 4 0 15 -57 43
-77 38 -7 -2 -10 3 -7 11 4 10 -6 16 -33 20 -41 7 -82 31 -71 42 3 4 20 -1 37
-9 34 -18 55 -21 46 -6 -3 6 -15 10 -25 10 -11 0 -24 9 -30 20 -11 21 -44 27
-55 10 -3 -5 -1 -10 4 -10 6 0 11 -7 11 -14 0 -13 -5 -13 -35 0 -20 8 -47 12
-63 8 -20 -4 -23 -3 -12 5 17 12 16 13 -31 29 -38 13 -38 13 -56 5z m197 -84
c0 -6 7 -9 15 -5 9 3 24 -3 35 -14 11 -11 23 -20 28 -20 4 0 16 -13 26 -27 21
-29 29 -142 12 -175 -5 -12 -4 -18 3 -18 6 0 11 7 11 15 0 16 16 20 24 6 6 -9
-28 -43 -61 -60 -33 -17 -89 -13 -138 9 -44 20 -85 62 -85 86 0 8 -4 14 -8 14
-9 0 -32 44 -32 62 0 5 6 8 14 5 14 -6 24 25 29 88 1 22 8 31 27 36 40 11 100
10 100 -2z"/>
<path d="M235 2380 c-4 -6 -18 -9 -32 -8 -14 2 -28 -3 -30 -9 -3 -8 5 -13 21
-13 15 0 29 -6 32 -14 7 -17 30 -11 38 10 11 29 -14 58 -29 34z"/>
<path d="M187 2304 c-4 -4 -7 -18 -7 -31 0 -18 9 -28 35 -39 53 -22 75 -19 75
11 0 16 -6 25 -15 25 -8 0 -15 4 -15 9 0 19 -34 22 -44 4 -9 -16 -10 -16 -16
5 -3 13 -8 20 -13 16z"/>
<path d="M150 2285 c0 -8 5 -15 10 -15 6 0 10 7 10 15 0 8 -4 15 -10 15 -5 0
-10 -7 -10 -15z"/>
<path d="M310 2190 c-8 -5 -10 -10 -5 -10 6 0 17 5 25 10 8 5 11 10 5 10 -5 0
-17 -5 -25 -10z"/>
<path d="M160 2550 c0 -5 4 -10 9 -10 5 0 18 -3 28 -6 16 -5 16 -4 -1 10 -23
18 -36 20 -36 6z"/>
<path d="M533 2505 c0 -27 2 -38 4 -22 2 15 2 37 0 50 -2 12 -4 0 -4 -28z"/>
<path d="M1960 2532 c-34 -16 -34 -17 -10 -21 14 -1 28 -8 32 -14 11 -17 20
-2 16 27 l-3 25 -35 -17z"/>
<path d="M1185 2520 c3 -5 8 -10 11 -10 2 0 4 5 4 10 0 6 -5 10 -11 10 -5 0
-7 -4 -4 -10z"/>
<path d="M523 2385 c0 -33 2 -45 4 -27 2 18 2 45 0 60 -2 15 -4 0 -4 -33z"/>
<path d="M889 2427 c-17 -13 -41 -72 -32 -81 10 -10 23 4 23 25 0 10 4 19 9
19 8 0 24 41 18 46 -1 1 -9 -3 -18 -9z"/>
<path d="M1967 2413 c3 -12 11 -28 19 -34 21 -17 17 5 -5 32 -20 24 -20 24
-14 2z"/>
<path d="M2000 2420 c0 -5 7 -10 15 -10 8 0 15 5 15 10 0 6 -7 10 -15 10 -8 0
-15 -4 -15 -10z"/>
<path d="M513 2245 c0 -33 2 -45 4 -27 2 18 2 45 0 60 -2 15 -4 0 -4 -33z"/>
<path d="M503 2080 c0 -30 2 -43 4 -27 2 15 2 39 0 55 -2 15 -4 2 -4 -28z"/>
<path d="M3119 2044 c-1 -5 -1 -12 0 -16 0 -5 -3 -8 -9 -8 -15 0 -12 -37 4
-43 17 -7 36 11 36 34 0 17 -29 48 -31 33z"/>
<path d="M2890 2033 c-14 -3 -29 -9 -34 -14 -15 -14 33 -10 74 6 30 11 31 13
10 13 -14 0 -36 -3 -50 -5z"/>
<path d="M98 2005 c-35 -30 -36 -62 -3 -77 14 -6 25 -15 25 -19 0 -4 -11 -10
-25 -13 -20 -5 -25 -13 -25 -36 0 -37 -13 -39 -28 -5 -20 44 -42 31 -42 -25
l0 -50 134 -66 c121 -60 166 -73 166 -46 0 4 -35 26 -77 49 -66 35 -78 45 -75
65 1 13 12 31 23 40 15 13 19 25 15 42 -3 13 -1 38 5 56 14 39 -1 80 -30 80
-11 0 -24 6 -28 14 -7 12 -13 10 -35 -9z"/>
<path d="M873 2011 c-10 -15 -9 -20 2 -25 11 -4 15 2 15 19 0 30 -2 31 -17 6z"/>
<path d="M493 1945 c0 -38 2 -53 4 -32 2 20 2 52 0 70 -2 17 -4 1 -4 -38z"/>
<path d="M2866 1958 c-3 -13 -6 -37 -6 -55 0 -25 5 -33 25 -40 l26 -8 -21 -23
c-24 -26 -14 -27 48 -9 32 10 39 16 30 25 -9 9 -7 13 6 18 11 4 21 1 26 -7 5
-7 12 -10 16 -6 19 19 9 38 -31 57 -24 12 -46 27 -49 35 -3 8 -14 15 -24 15
-10 0 -23 5 -29 11 -7 7 -12 4 -17 -13z m44 -52 c0 -9 8 -12 27 -8 22 4 25 2
20 -12 -4 -10 -7 -22 -7 -27 0 -16 -21 -9 -41 14 -20 24 -25 47 -9 47 6 0 10
-6 10 -14z"/>
<path d="M3063 1965 c-3 -10 0 -27 7 -38 9 -15 10 -22 1 -25 -6 -2 -11 -21
-11 -43 0 -35 3 -39 25 -39 27 0 32 9 15 26 -8 8 -7 19 0 39 7 19 7 31 0 40
-6 8 -10 21 -8 31 4 23 -20 30 -29 9z"/>
<path d="M2822 1900 c0 -19 2 -27 5 -17 2 9 2 25 0 35 -3 9 -5 1 -5 -18z"/>
<path d="M2821 1844 c0 -11 3 -14 6 -6 3 7 2 16 -1 19 -3 4 -6 -2 -5 -13z"/>
<path d="M3128 1833 c7 -3 16 -2 19 1 4 3 -2 6 -13 5 -11 0 -14 -3 -6 -6z"/>
<path d="M483 1750 c0 -41 2 -58 4 -37 2 20 2 54 0 75 -2 20 -4 3 -4 -38z"/>
<path d="M2822 1795 c0 -16 2 -22 5 -12 2 9 2 23 0 30 -3 6 -5 -1 -5 -18z"/>
<path d="M3092 1801 c-18 -3 -32 -10 -31 -16 10 -50 17 -53 62 -32 17 8 27 20
27 35 0 23 -3 24 -58 13z"/>
<path d="M2982 1790 c-12 -5 -29 -7 -37 -4 -8 4 -31 -1 -50 -10 -34 -16 -34
-17 -28 -69 3 -28 9 -56 14 -61 11 -12 59 32 59 54 0 18 22 70 30 70 13 0 28
-17 34 -37 6 -17 2 -22 -16 -25 -23 -3 -82 -78 -70 -89 17 -16 80 -19 91 -5 9
10 9 16 1 21 -7 4 -8 11 -2 18 12 14 15 147 5 146 -5 0 -18 -4 -31 -9z m-52
-41 c0 -12 -29 -38 -42 -39 -5 0 -8 7 -8 15 0 8 7 15 15 15 8 0 15 5 15 10 0
6 5 10 10 10 6 0 10 -5 10 -11z"/>
<path d="M280 1775 c0 -8 5 -15 10 -15 6 0 10 7 10 15 0 8 -4 15 -10 15 -5 0
-10 -7 -10 -15z"/>
<path d="M2821 1724 c0 -11 3 -14 6 -6 3 7 2 16 -1 19 -3 4 -6 -2 -5 -13z"/>
<path d="M0 1682 c1 -26 23 -50 53 -57 15 -4 27 -11 27 -16 0 -5 4 -9 9 -9 5
0 60 -24 122 -54 63 -30 116 -52 118 -50 2 1 0 13 -3 26 -5 17 -37 38 -129 82
-212 103 -197 97 -197 78z"/>
<path d="M466 1512 c-4 -90 -5 -166 -3 -168 6 -7 21 300 15 318 -3 7 -8 -61
-12 -150z"/>
<path d="M2833 1565 c0 -27 2 -38 4 -22 2 15 2 37 0 50 -2 12 -4 0 -4 -28z"/>
<path d="M3138 1570 c-13 -31 -18 -89 -8 -95 5 -3 13 0 16 8 7 20 0 106 -8 87z"/>
<path d="M2937 1543 c-4 -3 -7 -19 -7 -35 0 -15 -5 -28 -11 -28 -25 0 -38 -36
-39 -107 0 -39 5 -75 10 -78 6 -3 10 -15 10 -26 0 -25 8 -24 36 6 13 14 34 25
49 25 15 0 25 6 25 15 0 11 -5 12 -26 5 -14 -6 -29 -10 -34 -10 -13 0 2 173
16 187 7 7 10 22 7 33 -5 20 -23 26 -36 13z m-7 -224 c0 -5 -4 -9 -10 -9 -5 0
-10 7 -10 16 0 8 5 12 10 9 6 -3 10 -10 10 -16z"/>
<path d="M70 1525 c0 -29 27 -57 77 -80 152 -73 181 -83 192 -72 6 6 11 15 11
19 0 4 -39 26 -87 48 -49 23 -95 45 -104 50 -29 15 -89 39 -89 35z"/>
<path d="M2984 1467 c4 -10 9 -37 12 -60 4 -23 10 -49 15 -57 7 -13 9 -12 14
3 4 9 13 17 19 17 7 0 22 10 34 23 27 29 14 47 -34 47 -21 0 -37 7 -48 23 -13
17 -16 18 -12 4z"/>
<path d="M40 1421 c0 -21 -6 -32 -20 -36 -11 -3 -20 -11 -20 -16 0 -13 12 -11
38 7 23 16 30 58 12 69 -6 4 -10 -6 -10 -24z"/>
<path d="M2832 1420 c0 -19 2 -27 5 -17 2 9 2 25 0 35 -3 9 -5 1 -5 -18z"/>
<path d="M3124 1326 c-3 -8 1 -27 10 -43 l15 -28 1 43 c0 41 -15 57 -26 28z"/>
<path d="M205 1324 c6 -5 27 -25 48 -43 l37 -35 0 27 c0 28 -7 33 -70 52 -14
4 -21 4 -15 -1z"/>
<path d="M450 1265 c0 -38 2 -66 4 -64 8 7 10 118 3 126 -4 3 -7 -24 -7 -62z"/>
<path d="M3090 1266 c0 -8 -7 -22 -16 -30 -14 -15 -14 -16 3 -16 26 0 42 18
36 41 -6 22 -23 26 -23 5z"/>
<path d="M2360 1243 c0 -21 39 -74 40 -55 0 15 -28 72 -35 72 -3 0 -5 -8 -5
-17z"/>
<path d="M5 1242 c12 -11 434 -66 443 -58 3 3 0 6 -7 6 -12 0 -351 46 -411 56
-22 3 -31 2 -25 -4z"/>
<path d="M3116 1193 c-6 -14 -5 -15 5 -6 7 7 10 15 7 18 -3 3 -9 -2 -12 -12z"/>
<path d="M3105 1111 c-3 -5 -1 -12 5 -16 16 -10 12 -55 -5 -55 -17 0 -20 -25
-5 -35 6 -3 13 1 16 9 3 9 12 16 20 16 10 0 14 13 14 45 0 38 -3 45 -19 45
-11 0 -22 -4 -26 -9z"/>
<path d="M2911 1091 c-21 -13 7 -65 38 -69 20 -3 23 -1 16 15 -4 10 -8 27 -10
38 -2 22 -23 30 -44 16z"/>
<path d="M2997 1044 c-3 -3 -3 -13 0 -21 3 -8 0 -19 -8 -24 -11 -6 -11 -11 -1
-21 6 -6 12 -20 12 -30 0 -16 -3 -17 -20 -8 -15 8 -19 17 -15 31 12 35 -20 21
-49 -23 -35 -53 -40 -103 -11 -103 16 0 19 7 20 42 0 23 3 44 7 48 9 10 33
-16 33 -35 0 -24 49 -19 53 5 2 11 6 27 9 35 23 59 1 135 -30 104z"/>
<path d="M2158 993 c6 -2 18 -2 25 0 6 3 1 5 -13 5 -14 0 -19 -2 -12 -5z"/>
<path d="M3080 900 c0 -5 5 -10 10 -10 6 0 10 5 10 10 0 6 -4 10 -10 10 -5 0
-10 -4 -10 -10z"/>
<path d="M3120 875 c0 -19 -5 -25 -21 -25 -18 0 -20 -5 -17 -52 3 -52 4 -53
36 -56 l32 -3 0 80 c0 65 -3 81 -15 81 -9 0 -15 -9 -15 -25z"/>
<path d="M2950 860 c-12 -8 -9 -10 13 -10 15 0 27 5 27 10 0 13 -20 13 -40 0z"/>
<path d="M2226 842 c-2 -4 -1 -14 5 -22 7 -12 9 -10 9 8 0 23 -5 28 -14 14z"/>
<path d="M2908 812 c-30 -4 -32 -11 -18 -77 7 -35 9 -37 15 -17 11 33 31 21
27 -16 -2 -18 1 -32 7 -32 6 0 11 11 11 24 0 18 5 23 23 22 12 -1 25 3 29 9 4
5 8 -2 8 -16 0 -19 6 -28 22 -32 12 -4 23 -5 24 -4 1 1 0 35 -3 75 l-6 73 -56
-3 c-31 -2 -68 -4 -83 -6z"/>
<path d="M2219 758 c0 -2 -2 -14 -5 -28 -3 -23 -3 -23 8 -5 10 17 12 17 17 2
3 -9 11 -13 17 -9 8 5 4 13 -12 25 -13 10 -24 17 -25 15z"/>
<path d="M2480 700 c0 -40 -3 -50 -17 -50 -9 0 -14 -3 -10 -6 3 -3 22 -1 42 6
36 12 36 13 31 54 -3 22 -5 42 -5 44 -1 1 -10 2 -21 2 -17 0 -20 -7 -20 -50z"/>
<path d="M3112 658 c-7 -20 -8 -37 -2 -49 14 -26 12 -36 -7 -35 -33 2 -28 -19
5 -22 l32 -3 0 65 c0 73 -10 90 -28 44z"/>
<path d="M2465 620 c-18 -8 -17 -9 8 -9 16 -1 26 3 22 9 -3 6 -7 10 -8 9 -1 0
-11 -4 -22 -9z"/>
<path d="M2890 600 c0 -11 5 -20 10 -20 6 0 10 9 10 20 0 11 -4 20 -10 20 -5
0 -10 -9 -10 -20z"/>
<path d="M3078 593 c7 -3 16 -2 19 1 4 3 -2 6 -13 5 -11 0 -14 -3 -6 -6z"/>
<path d="M2930 575 c0 -8 5 -15 10 -15 6 0 10 7 10 15 0 8 -4 15 -10 15 -5 0
-10 -7 -10 -15z"/>
<path d="M2720 570 c0 -5 5 -10 11 -10 5 0 7 5 4 10 -3 6 -8 10 -11 10 -2 0
-4 -4 -4 -10z"/>
<path d="M2670 550 c0 -13 11 -13 30 0 12 8 11 10 -7 10 -13 0 -23 -4 -23 -10z"/>
</g>
</svg>
